<?xml version="1.0" encoding="utf-8"?>
<!-- Generator: Adobe Illustrator 24.3.0, SVG Export Plug-In . SVG Version: 6.00 Build 0)  -->
<svg version="1.1" id="Layer_4" xmlns="http://www.w3.org/2000/svg" xmlns:xlink="http://www.w3.org/1999/xlink" x="0px" y="0px"
	 viewBox="0 0 190.9 59.9" style="enable-background:new 0 0 190.9 59.9;" xml:space="preserve">
<style type="text/css">
	.st0{fill:#231F20;}
	.st1{clip-path:url(#SVGID_1_);fill:#231F20;}
	.st2{fill:#229848;}
	.st3{clip-path:url(#SVGID_2_);fill:#231F20;}
	.st4{clip-path:url(#SVGID_3_);fill:#231F20;}
	.st5{clip-path:url(#SVGID_4_);fill:#231F20;}
	.st6{clip-path:url(#SVGID_5_);fill:#231F20;}
	.st7{clip-path:url(#SVGID_6_);fill:#231F20;}
</style>
<g>
	<polygon class="st0" points="36.1,7.9 38.5,10.2 40.8,7.8 38.5,5.4 36.1,7.7 33.8,5.4 31.4,7.8 33.8,10.2 	"/>
	<polygon class="st0" points="51.5,29.5 49.2,27.2 46.8,29.6 49.2,32 51.5,29.7 53.9,32 56.3,29.6 53.9,27.2 	"/>
	<polygon class="st0" points="122.4,6.3 122.4,22.3 122.4,25.2 125.3,25.2 125.3,6.3 	"/>
	<g>
		<defs>
			<rect id="SVGID_13_" x="1.7" y="4.4" width="187.4" height="53.2"/>
		</defs>
		<clipPath id="SVGID_1_">
			<use xlink:href="#SVGID_13_"  style="overflow:visible;"/>
		</clipPath>
		<path class="st1" d="M38.7,22.3h-5.4c-1.5,0-2.7-1.2-2.7-2.7v-1.7c0-1.5,1.2-2.7,2.7-2.7h5.4V22.3z M79.3,22.3h-2.7
			c-1.5,0-2.7-1.2-2.7-2.7v-5.8h-2.9v5.8v0c0,1.5-1.2,2.6-2.7,2.6h-0.2c-1.5,0-2.7-1.2-2.7-2.7v-5.8l-2.9,0v5.8
			c0,1.5-1.2,2.7-2.6,2.7l-2.6,0h-1.1c-1.5,0-2.7-1.2-2.7-2.6v-7.4h-2.9v7.4c0,1.5-1.2,2.6-2.7,2.6h-6.5v-10h-8.2
			c-3.1,0-5.6,2.5-5.6,5.6v1.7c0,3.1,2.5,5.6,5.6,5.6h14.7c1.6,0,3.1-0.7,4.1-1.8c1,1.1,2.5,1.8,4.1,1.8h1.1h0H60
			c1.6,0,3.1-0.7,4.1-1.8c1,1.1,2.5,1.8,4.1,1.8h0.2c1.6,0,3.1-0.7,4.1-1.8c1,1.1,2.5,1.8,4.1,1.8h5.6V12.2h-2.9V22.3z"/>
	</g>
	<polygon class="st2" points="166.5,4.4 163.4,4.8 165.1,21.7 174.6,23.3 175.1,20.2 168,19.1 	"/>
	<polygon class="st2" points="179.1,17.3 170.4,15.9 171.6,7 174.7,7.4 173.9,13.3 179.6,14.2 	"/>
	<polygon class="st2" points="175.3,37.5 171.9,28.6 185.8,18.6 187.6,21.1 175.7,29.7 178.2,36.4 	"/>
	<polygon class="st2" points="179.7,30.2 182.8,38.4 185.7,37.3 183.6,31.9 189.1,29.7 188,26.8 	"/>
	<polygon class="st2" points="183.7,47.7 170.3,41.7 165.8,47.2 163.4,45.3 169.4,37.9 185,44.8 	"/>
	<polygon class="st2" points="168.7,54.1 166.3,52.2 171.9,45.4 179,50.9 177.1,53.3 172.4,49.7 	"/>
	<polygon class="st2" points="150.2,41.9 157.3,43 158.8,57.6 161.9,57.3 160.1,40.3 150.7,38.8 	"/>
	<polygon class="st2" points="153.6,55.1 150.5,54.7 151.4,48.8 145.7,47.9 146.2,44.8 154.8,46.2 	"/>
	<polygon class="st2" points="139.5,43.5 137.7,41 149.6,32.4 147,25.7 149.9,24.6 153.3,33.5 	"/>
	<polygon class="st2" points="137.3,35.3 136.1,32.4 141.6,30.2 139.6,24.8 142.5,23.7 145.6,31.9 	"/>
	<polygon class="st2" points="155.8,24.2 140.3,17.2 141.5,14.4 154.9,20.4 159.5,14.8 161.9,16.8 	"/>
	<polygon class="st2" points="153.4,16.7 146.3,11.2 148.2,8.7 152.9,12.4 156.6,7.9 159,9.9 	"/>
	<rect x="159.4" y="27.8" transform="matrix(0.7071 -0.7071 0.7071 0.7071 25.683 124.0871)" width="6.4" height="6.4"/>
	<g>
		<defs>
			<rect id="SVGID_15_" x="1.7" y="4.4" width="187.4" height="53.2"/>
		</defs>
		<clipPath id="SVGID_2_">
			<use xlink:href="#SVGID_15_"  style="overflow:visible;"/>
		</clipPath>
		<path class="st3" d="M9.7,40.8c-1.5,0-2.7,0.5-3.6,1.5c-0.9,1-1.4,2.3-1.4,3.9c0,1.6,0.5,2.9,1.4,3.9c0.9,1,2.1,1.5,3.6,1.5
			c1.5,0,2.7-0.5,3.6-1.5c0.9-1,1.4-2.3,1.4-3.9C14.6,43,12.6,40.8,9.7,40.8 M17.3,38.6v15.2h-2.8v-2.7c-0.9,1.9-3,3.1-5.5,3.1
			c-4.1,0-7.2-3.3-7.2-8c0-4.7,3.1-8.1,7.2-8.1c2.5,0,4.6,1.2,5.5,3.1v-2.7H17.3z"/>
	</g>
	<rect x="21.1" y="34.9" class="st0" width="2.8" height="18.9"/>
	<g>
		<defs>
			<rect id="SVGID_17_" x="1.7" y="4.4" width="187.4" height="53.2"/>
		</defs>
		<clipPath id="SVGID_3_">
			<use xlink:href="#SVGID_17_"  style="overflow:visible;"/>
		</clipPath>
		<path class="st4" d="M50.7,53.8h-2.8v-9.2c0-2.7-0.9-3.9-3.1-3.9c-2.5,0-4.2,1.6-4.2,4.1v9h-2.8v-9.2c0-2.7-0.9-3.9-3.1-3.9
			c-2.5,0-4.2,1.6-4.2,4.1v9h-2.8V38.6h2.8v2.5c0.8-1.8,2.7-2.9,5-2.9c2.3,0,4,1.1,4.7,3.1c0.8-1.9,2.8-3.1,5.3-3.1
			c3.3,0,5.2,2.1,5.2,5.8V53.8z"/>
		<path class="st4" d="M61.3,40.8c-1.5,0-2.7,0.5-3.6,1.5c-0.9,1-1.4,2.3-1.4,3.9c0,1.6,0.5,2.9,1.4,3.9c0.9,1,2.1,1.5,3.6,1.5
			c1.5,0,2.7-0.5,3.6-1.5c0.9-1,1.4-2.3,1.4-3.9C66.2,43,64.3,40.8,61.3,40.8 M68.9,38.6v15.2h-2.8v-2.7c-0.9,1.9-3,3.1-5.5,3.1
			c-4.1,0-7.2-3.3-7.2-8c0-4.7,3.1-8.1,7.2-8.1c2.5,0,4.6,1.2,5.5,3.1v-2.7H68.9z"/>
		<path class="st4" d="M73.2,49.4c1.1,1.5,2.9,2.3,5,2.3c2,0,3.3-0.8,3.3-2.1c0-1-0.7-1.7-2.5-2L76.5,47c-3.1-0.7-4.6-2.1-4.6-4.3
			c0-2.7,2.3-4.6,6-4.6c2.7,0,4.8,1,6.1,2.6l-1.8,1.7c-1.1-1.2-2.6-1.7-4.4-1.7c-2,0-3.1,0.8-3.1,2c0,0.9,0.6,1.5,2.6,1.9l2.7,0.6
			c3,0.7,4.3,2,4.3,4.2c0,3-2.3,4.8-6.1,4.8c-3.1,0-5.6-1.3-6.8-3.2L73.2,49.4z"/>
	</g>
	<rect x="87.2" y="38.6" class="st0" width="2.8" height="15.2"/>
	<g>
		<defs>
			<rect id="SVGID_19_" x="1.7" y="4.4" width="187.4" height="53.2"/>
		</defs>
		<clipPath id="SVGID_4_">
			<use xlink:href="#SVGID_19_"  style="overflow:visible;"/>
		</clipPath>
		<path class="st5" d="M100.4,40.8c-1.5,0-2.7,0.5-3.6,1.5c-0.9,1-1.4,2.3-1.4,3.9c0,1.6,0.5,2.9,1.4,3.9c0.9,1,2.1,1.5,3.6,1.5
			c1.5,0,2.7-0.5,3.6-1.5c0.9-1,1.4-2.3,1.4-3.9C105.3,43,103.4,40.8,100.4,40.8 M108,38.6v15.2h-2.8v-2.7c-0.9,1.9-3,3.1-5.5,3.1
			c-4.1,0-7.2-3.3-7.2-8c0-4.7,3.1-8.1,7.2-8.1c2.5,0,4.6,1.2,5.5,3.1v-2.7H108z"/>
	</g>
	<rect x="86.7" y="32.5" transform="matrix(0.7071 -0.7071 0.7071 0.7071 1.712 72.5547)" class="st0" width="3.4" height="3.4"/>
	<g>
		<g>
			<defs>
				<rect id="SVGID_21_" x="1.7" y="4.4" width="187.4" height="53.2"/>
			</defs>
			<clipPath id="SVGID_5_">
				<use xlink:href="#SVGID_21_"  style="overflow:visible;"/>
			</clipPath>
			<path class="st6" d="M107.7,22.3h-5c-1.5,0-2.7-1.2-2.7-2.7v-1.7c0-1.5,1.2-2.7,2.7-2.7h2.3c1.5,0,2.7,1.2,2.7,2.7V22.3z
				 M115.6,22.3h-5v-4.5c0-3.1-2.5-5.6-5.6-5.6h-2.3c-3.1,0-5.6,2.5-5.6,5.6v1.7c0,1.5-1.2,2.7-2.7,2.7h-3.2H90v-16h-2.9v18.9h4.1
				h3.2c1.7,0,3.1-0.7,4.2-1.9c1,1.1,2.5,1.9,4.2,1.9h7.9h7.9V6.3h-2.9V22.3z"/>
		</g>
		<g>
			<defs>
				<rect id="SVGID_23_" x="1.7" y="4.4" width="187.4" height="53.2"/>
			</defs>
			<clipPath id="SVGID_6_">
				<use xlink:href="#SVGID_23_"  style="overflow:visible;"/>
			</clipPath>
			<path class="st7" d="M125.3,53.8h-2.8v-9.1c0-2.7-1.1-3.9-3.3-3.9c-2.6,0-4.5,1.6-4.5,4.1v9h-2.8v-22h2.8v9.3
				c0.9-1.8,2.8-2.9,5.2-2.9c3.4,0,5.4,2.1,5.4,5.9V53.8z"/>
		</g>
	</g>
</g>
</svg>
